<mxfile host="app.diagrams.net" modified="2023-10-07T12:38:16.640Z" agent="Mozilla/5.0 (Macintosh; Intel Mac OS X 10_15_7) AppleWebKit/537.36 (KHTML, like Gecko) Chrome/117.0.0.0 Safari/537.36" version="21.7.4" etag="aeWfZMrScu1AUlAAcELn" type="github">
  <diagram name="Page-1" id="Gh8tbZ3NRX16uVpijsst">
    <mxGraphModel>
      <root>
        <mxCell id="0" />
        <mxCell id="1" parent="0" />
      </root>
    </mxGraphModel>
  </diagram>
</mxfile>
